<svg version="1.1" id="Layer_2" xmlns="http://www.w3.org/2000/svg" xmlns:xlink="http://www.w3.org/1999/xlink" x="0px" y="0px"
	 width="1109px" height="532px" viewBox="0 0 1109 532" enable-background="new 0 0 1109 532" xml:space="preserve" [attr.fill]="fillColor">>
<path d="M339,463l77.865-317L417,463h69V86l-115-0.135l-92,329L180.53,86H66v377h69V146.334L219.197,463H339z"/>
<rect x="550" y="99" width="67" height="72"/>
<path d="M550,172"/>
<path d="M550,207"/>
<rect x="715" y="99" width="67" height="72"/>
<path d="M872,123h67v84h95v56l-95,0v117c0,0,0.5,28.666,30.667,28.666c27.208,0,31-33.999,31-33.999l59.334,9.333
	c0,0-2,83.333-92.334,83.333c-98.666,0-95.667-88-95.667-88V263h-53v-56h53V123z"/>
<g>
	<path fill="none" stroke="#000000" stroke-miterlimit="10" d="M616.5,260"/>
	<g>
		<path d="M639,290.667c-9.25-4.75-23-19.667-23-19.667v192h-67V207h67c0,0,17.334,32.667,39.667,47.667L639,290.667z"/>
	</g>
</g>
<g>
	<path d="M691.834,290.666C701.084,285.916,715,271,715,271v192h67V207h-67.332c0,0-17.251,32.667-39.584,47.667L691.834,290.666z"
		/>
</g>
</svg>
